inDegrees=yes
name=ik_S40_A12_T01
DataType=double
version=3
OpenSimVersion=4.3-2021-08-27-4bc7ad9
endheader
time	pelvis_tilt	pelvis_list	pelvis_rotation	pelvis_tx	pelvis_ty	pelvis_tz	hip_flexion_r	hip_adduction_r	hip_rotation_r	knee_angle_r	knee_angle_r_beta	ankle_angle_r	subtalar_angle_r	mtp_angle_r	hip_flexion_l	hip_adduction_l	hip_rotation_l	knee_angle_l	knee_angle_l_beta	ankle_angle_l	subtalar_angle_l	mtp_angle_l	lumbar_extension	lumbar_bending	lumbar_rotation	arm_flex_r	arm_add_r	arm_rot_r	elbow_flex_r	pro_sup_r	wrist_flex_r	wrist_dev_r	arm_flex_l	arm_add_l	arm_rot_l	elbow_flex_l	pro_sup_l	wrist_flex_l	wrist_dev_l
0	0	0	0	0	0.9399999999999999	0	0	0	0	0	0	0	0	0	0	0	0	0	0	0	0	0	0	0	0	0	0	0	0	89.99999999963507	0	0	0	0	0	0	89.99999999869995	0	0
0.02	-0.4258588639286507	1.638058473031849	32.47176524184398	0	0.9399999999999999	0	1.31166936692045	-0.6131998738314332	-0.4402255348986333	2.045080766996556	0.03569339285330088	0	0	0	1.31166936692045	-0.6131998738314332	-0.4402255348986333	2.045080766996556	0.03569339285330088	0	0	0	-0.1489217421212582	1.194545883422917	15.97477677837723	-4.009901124123728	-0.03630243701905931	-3.871308779365845	0.2083323258994415	81.68463183463079	0	0	-5.15224441299845	-0.2923131215308348	-7.171880901998005	-1.26911926819741	95.77486631019221	0	0
0.04	-0.4766404053230869	1.587137713888326	32.51017194956419	0	0.9399999999999999	0	1.638608457996669	-0.7624386039974126	-0.5600942390545912	2.302766790238687	0.0401908623952467	0	0	0	1.638608457996669	-0.7624386039974126	-0.5600942390545912	2.302766790238687	0.0401908623952467	0	0	0	-0.2157364746250713	1.180138835977525	15.90829702516716	-3.878249607848313	-0.04933806312316296	-3.837614683538022	0.2220922727917855	81.72675213446499	0	0	-5.021156273978274	-0.2814236083651194	-7.14082702282951	-1.254763205192516	95.73899537747201	0	0
0.06	-0.4707469369963335	1.583584164310167	32.73960149823892	0	0.9399999999999999	0	3.116005628461282	-1.42473092113622	-1.092327102862854	3.595996984155153	0.06276198726529378	0	0	0	3.116005628461282	-1.42473092113622	-1.092327102862854	3.595996984155153	0.06276198726529378	0	0	0	-0.2046306965474247	1.187145530651435	15.67954875699547	-3.875794139318756	-0.03156842459326166	-3.819796694401537	0.1854378350948945	81.77205171689009	0	0	-5.024329738144757	-0.2879444191819458	-7.116399268724279	-1.280776533290043	95.76212282989707	0	0
0.08	-0.4864644115023309	1.571968364794029	32.79746694144126	0	0.9399999999999999	0	3.578431463216072	-1.631102497592893	-1.255357355005342	4.026451140296115	0.07027482956884734	0	0	0	3.578431463216072	-1.631102497592893	-1.255357355005342	4.026451140296115	0.07027482956884734	0	0	0	-0.219783309852157	1.187727455106928	15.60999027232426	-3.844331920703322	-0.04549071778079274	-3.808626639527899	0.1911620261271144	81.79545346006431	0	0	-4.984177140169356	-0.2953598021838416	-7.110438292771479	-1.317745731468777	95.78608117649704	0	0
0.1	-0.4821976286511557	1.585076470089541	32.80059700998521	0	0.9399999999999999	0	3.699680187030932	-1.682655742052205	-1.298283110416895	4.125058148335054	0.07199584652466733	0	0	0	3.699680187030932	-1.682655742052205	-1.298283110416895	4.125058148335054	0.07199584652466733	0	0	0	-0.208031224758018	1.19727690884629	15.5979717333838	-3.847788158911585	-0.05527870390212194	-3.782471684196656	0.1753102136019399	81.79877145779557	0	0	-4.987251881995002	-0.3003032201743935	-7.082946711770491	-1.353014539643506	95.77967047006666	0	0
0.12	-0.4959793572548853	1.575760373399658	32.84491499642293	0	0.9399999999999999	0	4.057573024546259	-1.838232732925928	-1.423744720873145	4.447983556885111	0.07763195814221369	0	0	0	4.057573024546259	-1.838232732925928	-1.423744720873145	4.447983556885111	0.07763195814221369	0	0	0	-0.2215479903847296	1.197873540054902	15.54627346791531	-3.815989203312165	-0.06776065151431833	-3.778615751568902	0.1897100479210303	81.80818270370865	0	0	-4.964960724986852	-0.2814438701577964	-7.067786934557749	-1.333087064827926	95.81555333152019	0	0
0.14	-0.5182035570882243	1.545647998029759	33.07359717623616	0	0.9399999999999999	0	5.455991461066949	-2.438955535750842	-1.909943792199086	5.775873723014589	0.1008080136460276	0	0	0	5.455991461066949	-2.438955535750842	-1.909943792199086	5.775873723014589	0.1008080136460276	0	0	0	-0.2483987138642407	1.208998785863393	15.29734543329678	-3.746998889547292	-0.07434080630984378	-3.728230328561851	0.1699321767939215	81.77724566337221	0	0	-4.886025821744253	-0.2758638387359206	-7.066510925372264	-1.334528516754747	95.81410214492976	0	0
0.16	-0.5452036126655432	1.536278921198333	33.26035161823886	0	0.9399999999999999	0	6.961230787704287	-3.077612539199726	-2.422485568947922	7.3099106936514	0.1275820096309595	0	0	0	6.961230787704287	-3.077612539199726	-2.422485568947922	7.3099106936514	0.1275820096309595	0	0	0	-0.2596198828563562	1.211163576018781	15.10864378146069	-3.677209351701566	-0.07444327717830841	-3.748969870392922	0.143938516432702	81.81596925546543	0	0	-4.851204834797251	-0.2571363288169687	-7.081875123564383	-1.354459269075789	95.86735537772347	0	0
0.18	-0.5421591626443052	1.544433924344994	33.27169314342681	0	0.9399999999999999	0	7.045298384646931	-3.113536400601688	-2.450793431432149	7.400852770433201	0.1291692482994034	0	0	0	7.045298384646931	-3.113536400601688	-2.450793431432149	7.400852770433201	0.1291692482994034	0	0	0	-0.2513109142224622	1.216632281215688	15.09246350799347	-3.694475585053139	-0.08374836956574308	-3.75440471296545	0.1625855095986622	81.80992320886959	0	0	-4.855778725655323	-0.2524658457276689	-7.101224009158158	-1.356343757375067	95.87556820169814	0	0
0.2	-0.563449047767088	1.532845304479323	33.28847880060282	0	0.9399999999999999	0	7.31843505528576	-3.220884971652386	-2.541761100348118	7.664647960091928	0.1337733429098711	0	0	0	7.31843505528576	-3.220884971652386	-2.541761100348118	7.664647960091928	0.1337733429098711	0	0	0	-0.2726204404977817	1.219381910830345	15.05652778119673	-3.64322491946471	-0.1065584861399222	-3.782878286737101	0.1722339574187685	81.8469395182546	0	0	-4.786205325049507	-0.2323376546587289	-7.11931480512229	-1.396312489270867	95.8622562348001	0	0
0.22	-0.5741497894213532	1.521956803468182	33.35730938038368	0	0.9399999999999999	0	7.566202097249095	-3.320118252295181	-2.623980221428177	7.918180273654265	0.1381983165417325	0	0	0	7.566202097249095	-3.320118252295181	-2.623980221428177	7.918180273654265	0.1381983165417325	0	0	0	-0.2851721115967427	1.218204738342026	14.98557647029453	-3.582399186614591	-0.1041512542523476	-3.793443139394656	0.1393531459238739	81.88568007168946	0	0	-4.749934933247054	-0.2270468935312105	-7.171943815875871	-1.394206586252456	95.97162473608101	0	0
0.24	-0.5868730143591948	1.517648679184265	33.37039248756938	0	0.9399999999999999	0	7.813862762754987	-3.416018491974866	-2.705825417214847	8.159247282471359	0.142405729563525	0	0	0	7.813862762754987	-3.416018491974866	-2.705825417214847	8.159247282471359	0.142405729563525	0	0	0	-0.2953707490256017	1.222206735924762	14.94768620747933	-3.5589132690918	-0.1227219050170204	-3.794353066053678	0.1613548679157356	81.92468194123882	0	0	-4.695974548838945	-0.2216373646616097	-7.165795549612128	-1.41711476255848	95.93488252484831	0	0
